Coordinates
version=1
nRows=17
nColumns=33
inDegrees=yes

Units are S.I. units (second, meters, Newtons, ...)
Angles are in degrees.

endheader
time	ground_thorax_rot_x	ground_thorax_rot_y	ground_thorax_rot_z	ground_thorax_tx	ground_thorax_ty	ground_thorax_tz	clav_prot_r	clav_elev_r	scapula_abduction_r	scapula_elevation_r	scapula_upward_rot_r	scapula_winging_r	shoulder_elv_r	plane_of_elev_r	axial_rot_r	elbow_flexion_r	pro_sup_r	wrist_flex_r	wrist_dev_r	clav_prot_l	clav_elev_l	scapula_abduction_l	scapula_elevation_l	scapula_upward_rot_l	scapula_winging_l	shoulder_elv_l	plane_of_elev_l	axial_rot_l	elbow_flexion_l	pro_sup_l	wrist_flex_l	wrist_dev_l
      7.44000000	    -42.33194258	     -2.41233886	      1.45307250	   -127.34554542	    887.14676844	      2.86494969	      7.65987845	    -45.00000000	     44.30523728	    -45.00000000	    -13.30264458	   1701.81598293	  -1187.60081233	    148.23151223	   -103.70272888	   -700.48732415	     83.21058273	     19.22390613	      3.39071337	     16.21575550	     41.86991870	    -44.02907832	    -45.00000000	    -33.47189943	   -993.33675950	  -2808.36790527	     22.56389662	    -33.15553639	    370.08675020	     17.07356364	     10.56533045	    -22.20386196
      7.45000000	    -42.46927509	     -2.20485863	      1.17653117	   -123.44706607	    884.35733027	      3.42332665	      7.48029918	    -45.00000000	     44.62316805	    -45.00000000	    -12.04786181	   1701.89414782	  -1187.96423421	    148.28962228	   -103.82417213	   -700.48644392	     83.39342251	     19.24993660	      3.44260850	     16.45383916	     42.04863511	    -44.25428899	    -45.00000000	    -32.95438382	   -993.69467791	  -2808.58386297	     22.56182230	    -32.66277670	    369.87319801	     13.94966568	     11.25118835	    -21.93373466
      7.46000000	    -42.60940041	     -2.18311674	      1.03354434	   -119.52338248	    881.39911087	      3.98100957	      7.38460822	    -45.00000000	     44.91148511	    -45.00000000	    -11.21215132	   1702.06289284	  -1188.28483010	    148.33294240	   -104.19664821	   -700.49084302	     83.44953306	     19.30554741	      3.50857800	     16.48036679	     42.23984420	    -44.44178610	    -45.00000000	    -32.45818861	   -993.90842073	  -2808.92590737	     22.61539607	    -32.35974267	    369.64491400	     11.44191018	     11.76957321	    -21.65060430
      7.47000000	    -42.73202225	     -2.05118950	      0.82114334	   -115.58168245	    878.28546086	      4.53143140	      7.20400360	    -45.00000000	     45.00000000	    -45.00000000	    -10.47787529	   1702.38945937	  -1188.62476680	    148.37935274	   -104.45173421	   -700.53222430	     83.33986776	     19.37183219	      3.60086731	     16.54811076	     42.42800747	    -44.63607058	    -45.00000000	    -31.96157484	   -994.19927916	  -2809.23994799	     22.68783659	    -31.97998602	    369.45877084	      9.38051414	     12.25282581	    -21.35792354
      7.48000000	    -42.84933090	     -2.08507664	      0.83668471	   -111.62908569	    875.02946378	      5.06958148	      7.04656009	    -45.00000000	     45.00000000	    -45.00000000	    -10.20031933	   1702.76663537	  -1188.92054341	    148.46239786	   -105.05991758	   -700.53997555	     83.11106442	     19.51493350	      3.71343037	     16.64963432	     42.59154810	    -44.94062200	    -45.00000000	    -31.72282380	   -994.35100525	  -2809.65608546	     22.81741849	    -31.62641131	    369.26763729	      7.96153184	     12.50552114	    -21.09617080
      7.49000000	    -42.95655947	     -2.10377463	      0.77479575	   -107.67351363	    871.64211384	      5.59261044	      6.87518213	    -45.00000000	     45.00000000	    -45.00000000	     -9.91812168	   1703.20245256	  -1189.26825942	    148.53220635	   -105.53602790	   -700.63943232	     82.71174258	     19.59709142	      3.84432785	     16.63245117	     42.77607493	    -45.00000000	    -45.00000000	    -31.23240985	   -994.65790545	  -2809.99531155	     22.92177893	    -31.33200971	    369.09459858	      7.01429523	     12.75187997	    -20.84865544
      7.50000000	    -43.02086051	     -2.46472426	      1.06077571	   -103.72382713	    868.13539523	      6.09971053	      7.26068947	    -45.00000000	     45.00000000	    -45.00000000	    -10.56455376	   1703.44614617	  -1189.65515281	    148.28832755	   -106.33373828	   -700.71239705	     82.25306339	     19.35634786	      3.83421039	     15.70949704	     42.72967306	    -45.00000000	    -45.00000000	    -31.13166735	   -994.64779146	  -2810.54035373	     23.30530588	    -31.43759899	    368.98019502	      6.58755108	     13.01952137	    -20.63912394
      7.51000000	    -43.07215334	     -2.21519940	      0.75377459	    -99.79642198	    864.52137714	      6.59061507	      6.57789944	    -45.00000000	     45.00000000	    -45.00000000	     -9.24254777	   1703.88714171	  -1190.05805714	    148.65537280	   -106.40809311	   -700.86692696	     81.52378672	     19.72751737	      4.13462477	     16.72649100	     43.05598290	    -45.00000000	    -45.00000000	    -30.66279003	   -995.55164822	  -2810.50949258	     23.14861910	    -30.11089097	    368.80980585	      6.03900977	     13.23376923	    -20.40912403
      7.52000000	    -43.17424468	     -2.61580288	      1.15267666	    -95.90078737	    860.81361455	      7.06593822	      7.18953841	    -45.00000000	     45.00000000	    -45.00000000	    -10.53181983	   1704.00707288	  -1190.68994212	    148.17144619	   -107.08466330	   -701.10726790	     80.86630764	     19.17963663	      4.05947315	     15.25385741	     42.87082670	    -45.00000000	    -45.00000000	    -31.00053249	   -995.68846268	  -2810.78084955	     23.56952948	    -30.31254000	    368.76127057	      6.08453272	     13.72561566	    -20.20203435
      7.53000000	    -43.12129877	     -2.10777399	      0.55451459	    -92.05992088	    857.02526180	      7.52325779	      6.15181191	    -45.00000000	     45.00000000	    -45.00000000	     -8.45381748	   1704.50677071	  -1190.97742794	    148.73830664	   -106.96094917	   -701.15667061	     79.51167083	     19.82183606	      4.49471213	     16.85300270	     43.26465819	    -45.00000000	    -45.00000000	    -30.21724312	   -996.54580710	  -2810.99435255	     23.51266010	    -28.37968069	    368.58676000	      5.84251854	     13.73947722	    -20.00449208
      7.54000000	    -43.14411429	     -2.68308732	      1.00303422	    -88.28489220	    853.17543160	      7.96057528	      6.64136334	    -45.00000000	     45.00000000	    -45.00000000	     -9.63753620	   1705.03163361	  -1191.22574243	    148.61232457	   -107.82775450	   -701.25632892	     78.54186001	     19.94139966	      4.65673686	     16.34486527	     43.15450436	    -45.00000000	    -45.00000000	    -30.64956583	   -996.47872587	  -2811.61735454	     24.01372394	    -28.54676324	    368.36903598	      6.07961923	     13.59125648	    -19.83956648
      7.55000000	    -43.13800073	     -2.67145763	      0.96761120	    -84.59430370	    849.27993851	      8.37321388	      6.35059021	    -45.00000000	     45.00000000	    -45.00000000	     -9.32542566	   1705.53957031	  -1191.60273270	    148.89231153	   -108.42179417	   -701.49091011	     77.26333626	     20.20308059	      5.00296336	     16.80631913	     43.33506065	    -45.00000000	    -45.00000000	    -30.42772323	   -997.13012516	  -2811.83278968	     24.02461605	    -27.57304857	    368.15108509	      6.23778680	     13.71349235	    -19.65684355
      7.56000000	    -43.10289451	     -2.80118642	      1.10750977	    -80.99642357	    845.35811842	      8.75733621	      6.43165733	    -45.00000000	     45.00000000	    -45.00000000	     -9.63207364	   1705.93459599	  -1191.96603188	    148.88415802	   -108.88168282	   -701.72605720	     75.84746477	     20.28230915	      5.26383192	     16.74399955	     43.34934704	    -45.00000000	    -45.00000000	    -30.59151596	   -997.57028338	  -2812.12609591	     24.29836205	    -26.95268641	    367.97855414	      6.52717474	     13.84035351	    -19.48561860
      7.57000000	    -43.06623972	     -2.59820286	      0.87389461	    -77.49988932	    841.42766607	      9.10892962	      5.93358398	    -45.00000000	     45.00000000	    -45.00000000	     -8.85398489	   1706.20965064	  -1192.53438733	    149.12375799	   -109.12814605	   -702.07247624	     73.83319877	     20.33592438	      5.63311898	     17.31338101	     43.59953651	    -45.00000000	    -45.00000000	    -30.23730715	   -998.40260586	  -2812.20773345	     24.19033253	    -25.65001426	    367.81875602	      6.87120645	     14.17141104	    -19.32051814
      7.58000000	    -43.00540764	     -2.62742795	      0.86656665	    -74.10898808	    837.50693362	      9.42606436	      5.84021341	    -45.00000000	     45.00000000	    -45.00000000	     -8.87419767	   1706.55600107	  -1192.96843570	    149.18927841	   -109.46745332	   -702.40540745	     71.48835004	     20.39284480	      6.00628567	     17.46962720	     43.67425437	    -45.00000000	    -45.00000000	    -30.30788067	   -998.98347136	  -2812.37357580	     24.32366907	    -24.71002308	    367.69378164	      7.35998522	     14.37615038	    -19.18956834
      7.59000000	    -42.93605067	     -2.58444532	      0.72711098	    -70.82825461	    833.60961574	      9.70824674	      5.69313203	    -45.00000000	     45.00000000	    -45.00000000	     -8.75693845	   1706.83554873	  -1193.46638394	    149.16814017	   -109.77135677	   -702.80656685	     68.65101171	     20.37811141	      6.39757920	     17.48030147	     43.79824106	    -45.00000000	    -45.00000000	    -30.19645060	   -999.50155311	  -2812.59771210	     24.46651934	    -23.95529335	    367.51713388	      7.96176075	     14.59337470	    -19.05852996
      7.60000000	    -42.86708482	     -3.02622112	      1.12676712	    -67.66572579	    829.75152933	      9.95715596	      5.89642279	    -45.00000000	     45.00000000	    -45.00000000	     -9.46445679	   1707.37651695	  -1193.72366511	    149.40091012	   -110.21598232	   -703.13654680	     66.13029814	     20.56752708	      6.86506754	     17.62443636	     43.70605185	    -45.00000000	    -45.00000000	    -30.64241214	   -999.81691284	  -2813.00854209	     24.73452338	    -23.48062618	    367.21109258	      8.47618605	     14.43823522	    -18.94820630
